<svg width="24" height="26" viewBox="0 0 24 26" fill="none" xmlns="http://www.w3.org/2000/svg">
<path fill-rule="evenodd" clip-rule="evenodd" d="M11.9999 12.1893C14.8136 12.1893 17.0946 9.90835 17.0946 7.09465C17.0946 4.28095 14.8136 2 11.9999 2C9.18622 2 6.90527 4.28095 6.90527 7.09465C6.90527 9.90835 9.18622 12.1893 11.9999 12.1893ZM11.9999 14.1893C15.9182 14.1893 19.0946 11.0129 19.0946 7.09465C19.0946 3.17638 15.9182 0 11.9999 0C8.08166 0 4.90527 3.17638 4.90527 7.09465C4.90527 11.0129 8.08166 14.1893 11.9999 14.1893Z" fill="#767B91"/>
<path fill-rule="evenodd" clip-rule="evenodd" d="M12 34C17.8798 34 22 30.0923 22 26C22 21.9077 17.8798 18 12 18C6.12023 18 2 21.9077 2 26C2 30.0923 6.12023 34 12 34ZM12 36C18.6274 36 24 31.5228 24 26C24 20.4772 18.6274 16 12 16C5.37258 16 0 20.4772 0 26C0 31.5228 5.37258 36 12 36Z" fill="#767B91"/>
</svg>
