<svg width="20" height="21" viewBox="0 0 20 21" fill="none" xmlns="http://www.w3.org/2000/svg">
<path d="M8.99925 20.4998C8.84424 20.4998 8.69138 20.4636 8.55283 20.394C8.05884 20.147 7.85864 19.5464 8.10562 19.0524L9.59556 16.0726C9.60177 16.0595 9.60821 16.0466 9.61495 16.0338L13.1055 9.05264C13.1886 8.88652 13.3162 8.74681 13.4742 8.64917C13.6322 8.55153 13.8142 8.49981 14 8.49981C14.1857 8.49981 14.3677 8.55153 14.5257 8.64917C14.6837 8.74681 14.8113 8.88652 14.8944 9.05264L18.3852 16.0344C18.3918 16.0467 18.398 16.0594 18.4041 16.0721L19.8942 19.0525C20.1412 19.5464 19.941 20.1471 19.447 20.3941C18.9532 20.641 18.3524 20.4409 18.1054 19.9469L16.8819 17.4997H11.118L9.89447 19.9469C9.71924 20.2972 9.36608 20.4998 8.99925 20.4998ZM12.118 15.4997H15.8819L14 11.7358L12.118 15.4997ZM1.00095 17.6289C0.633244 17.6289 0.279368 17.4253 0.104665 17.0736C-0.141063 16.579 0.0606483 15.9789 0.555248 15.7332C2.53498 14.7495 4.27897 13.3997 5.71183 11.7852C4.82259 10.583 4.07916 9.2795 3.49118 7.88946C3.27599 7.38084 3.51391 6.79408 4.02256 6.57892C4.53118 6.36376 5.11794 6.60169 5.3331 7.11034C5.78656 8.18234 6.34317 9.19655 6.9977 10.1451C8.16964 8.44648 9.03459 6.53528 9.52646 4.49995H1.00019C0.447896 4.49995 0.000191679 4.05224 0.000191679 3.49995C0.000191679 2.94766 0.447934 2.49999 1.00019 2.49999H6.00009V1.5C6.00009 0.947705 6.4478 0.5 7.00009 0.5C7.55238 0.5 8.00009 0.947705 8.00009 1.5V2.49999H10.7324C10.744 2.4998 10.7557 2.4998 10.7673 2.49999H13C13.5522 2.49999 14 2.9477 14 3.49999C14 4.05228 13.5522 4.49998 13 4.49998H11.5777C11.0073 7.1561 9.87121 9.63542 8.284 11.7836C8.44148 11.9607 8.60262 12.1346 8.76731 12.305C9.15103 12.7023 9.14005 13.3353 8.74288 13.719C8.34563 14.1027 7.71254 14.0917 7.32889 13.6946C7.21727 13.579 7.10711 13.4621 6.99842 13.3438C5.43765 15.046 3.56213 16.4725 1.44517 17.5243C1.30718 17.593 1.15512 17.6288 1.00095 17.6289Z" fill="#909298"/>
</svg>
