<svg width="20" height="21" viewBox="0 0 20 21" fill="none" xmlns="http://www.w3.org/2000/svg">
<g clip-path="url(#clip0_1289_705)">
<path d="M14.8017 20.4997C8.02582 20.7288 -4.18085 8.6205 1.48665 2.0555L2.44499 1.22216C2.93009 0.753218 3.58033 0.494145 4.25501 0.501007C4.92968 0.507869 5.57452 0.780115 6.04999 1.25883C6.07568 1.285 6.09962 1.31284 6.12165 1.34216L7.62165 3.29133C8.0775 3.77369 8.33079 4.41265 8.32924 5.07633C8.32769 5.74001 8.07142 6.37777 7.61332 6.858L6.64832 8.07133C7.18258 9.36889 7.96784 10.5482 8.95901 11.5415C9.95018 12.5348 11.1278 13.3226 12.4242 13.8597L13.6442 12.8888C14.1306 12.442 14.7668 12.1937 15.4273 12.1928C16.0879 12.1919 16.7248 12.4384 17.2125 12.8838L19.1625 14.3838C19.1916 14.4058 19.2194 14.4295 19.2458 14.4547C19.7267 14.94 19.9965 15.5956 19.9965 16.2788C19.9965 16.9621 19.7267 17.6177 19.2458 18.103L18.4867 18.978C18.0051 19.4648 17.431 19.8502 16.7981 20.1116C16.1652 20.3729 15.4864 20.5049 14.8017 20.4997ZM4.22582 2.16633C4.10606 2.16624 3.98746 2.18974 3.87679 2.2355C3.76612 2.28125 3.66555 2.34836 3.58082 2.433L2.62165 3.26633C-2.08335 8.923 12.3142 22.5188 17.2667 17.8397L18.0267 16.9638C18.117 16.8834 18.1905 16.7859 18.243 16.677C18.2955 16.568 18.3259 16.4498 18.3325 16.329C18.3391 16.2082 18.3217 16.0874 18.2814 15.9733C18.2411 15.8593 18.1786 15.7544 18.0975 15.6647L16.1583 14.1755C16.1286 14.1536 16.1007 14.1294 16.075 14.103C15.9011 13.9373 15.6702 13.8449 15.43 13.8449C15.1898 13.8449 14.9589 13.9373 14.785 14.103C14.7629 14.1254 14.7395 14.1465 14.715 14.1663L13.0833 15.4663C12.97 15.5565 12.8352 15.6156 12.6922 15.6378C12.5491 15.66 12.4028 15.6446 12.2675 15.593C10.5876 14.9672 9.06183 13.9876 7.79357 12.7206C6.52531 11.4537 5.54418 9.92892 4.91665 8.24967C4.8611 8.11247 4.84309 7.96296 4.86447 7.8165C4.88585 7.67004 4.94586 7.53191 5.03832 7.41633L6.33332 5.78633C6.35258 5.76164 6.37346 5.73826 6.39582 5.71633C6.56604 5.54465 6.66155 5.31268 6.66155 5.07091C6.66155 4.82915 6.56604 4.59718 6.39582 4.4255C6.36985 4.39958 6.34589 4.37172 6.32415 4.34216L4.83832 2.4055C4.67043 2.2538 4.45209 2.17003 4.22582 2.1705V2.16633ZM18.8033 10.9797C22.9617 4.85883 15.6367 -2.45867 9.52249 1.69883C9.43028 1.76039 9.35129 1.83973 9.29013 1.9322C9.22898 2.02467 9.18689 2.12842 9.16633 2.23736C9.14577 2.34631 9.14716 2.45825 9.17041 2.56665C9.19366 2.67505 9.23831 2.77773 9.30174 2.86865C9.36516 2.95958 9.4461 3.03694 9.5398 3.0962C9.6335 3.15545 9.73808 3.19542 9.84742 3.21375C9.95676 3.23208 10.0687 3.22841 10.1766 3.20296C10.2845 3.1775 10.3862 3.13077 10.4758 3.0655C15.0375 -0.0670032 20.5675 5.46883 17.4367 10.0272C17.37 10.1167 17.322 10.2187 17.2955 10.3272C17.269 10.4356 17.2646 10.5483 17.2825 10.6585C17.3004 10.7687 17.3402 10.8742 17.3997 10.9687C17.4591 11.0632 17.5369 11.1447 17.6285 11.2086C17.7201 11.2724 17.8236 11.3172 17.9328 11.3403C18.0421 11.3633 18.1548 11.3642 18.2644 11.3429C18.374 11.3215 18.4781 11.2783 18.5707 11.216C18.6633 11.1536 18.7424 11.0732 18.8033 10.9797ZM15.5883 9.4255C15.7445 9.26923 15.8323 9.0573 15.8323 8.83633C15.8323 8.61536 15.7445 8.40344 15.5883 8.24716L14.1667 6.82466V4.66633C14.1667 4.44532 14.0789 4.23336 13.9226 4.07708C13.7663 3.92079 13.5543 3.833 13.3333 3.833C13.1123 3.833 12.9003 3.92079 12.7441 4.07708C12.5878 4.23336 12.5 4.44532 12.5 4.66633V7.16633C12.5 7.38733 12.5879 7.59925 12.7442 7.7555L14.4108 9.42216C14.5671 9.57839 14.779 9.66615 15 9.66615C15.221 9.66615 15.4329 9.57839 15.5892 9.42216L15.5883 9.4255Z" fill="#909298"/>
</g>
<defs>
<clipPath id="clip0_1289_705">
<rect width="20" height="20" fill="white" transform="translate(0 0.5)"/>
</clipPath>
</defs>
</svg>
