<svg width="20" height="21" viewBox="0 0 20 21" fill="none" xmlns="http://www.w3.org/2000/svg">
<g clip-path="url(#clip0_1289_693)">
<path d="M19.1304 17.7743H7.8258C7.34574 17.7743 6.9561 17.3848 6.9561 16.9048C6.9561 16.4247 7.34574 16.0352 7.8258 16.0352H19.1304C19.6105 16.0352 19.9999 16.4247 19.9999 16.9048C19.9999 17.3848 19.6105 17.7743 19.1304 17.7743ZM16.7548 2.24879L15.525 1.01909C14.8677 0.361638 13.7224 0.362616 13.0659 1.01909L11.2676 2.81738L14.9564 6.50617L16.7547 4.70788C17.0834 4.38003 17.2642 3.94359 17.2642 3.47834C17.2642 3.01406 17.0834 2.57746 16.7547 2.24879H16.7548ZM10.0371 4.0479L1.07509 13.0099C1.01764 13.0668 0.977546 13.1389 0.959492 13.2177L0.0116147 17.2395C-0.00534225 17.3116 -0.00360894 17.3868 0.0166503 17.458C0.0369096 17.5292 0.0750235 17.5941 0.127379 17.6464C0.167545 17.687 0.215338 17.7191 0.267998 17.7411C0.320658 17.763 0.377143 17.7743 0.434194 17.7743C0.467333 17.7743 0.501247 17.7708 0.534183 17.763L4.55608 16.8151C4.63479 16.7968 4.70678 16.7567 4.76388 16.6995L13.7259 7.73763L10.0371 4.0479Z" fill="#909298"/>
</g>
<defs>
<clipPath id="clip0_1289_693">
<rect width="20" height="20" fill="white" transform="translate(0 0.5)"/>
</clipPath>
</defs>
</svg>
