<svg width="48" height="48" viewBox="0 0 48 48" fill="none" xmlns="http://www.w3.org/2000/svg">
<path d="M39.5625 0.917531V8.53125H47.1762L39.5625 0.917531ZM29.876 34.9119C31.8431 32.7806 33.0469 29.9347 33.0469 26.8125C33.0469 20.2215 27.6847 14.8594 21.0938 14.8594C14.5028 14.8594 9.14062 20.2215 9.14062 26.8125C9.14062 29.9347 10.3444 32.7806 12.3115 34.9119C12.7442 32.5533 14.309 30.6578 16.3912 29.7463C15.5225 28.6928 15 27.3439 15 25.875C15 22.5149 17.7337 19.7812 21.0938 19.7812C24.4538 19.7812 27.1875 22.5149 27.1875 25.875C27.1875 27.3438 26.665 28.6928 25.7963 29.7463C27.8786 30.6578 29.4433 32.5533 29.876 34.9119Z" fill="#C2C2C2"/>
<path d="M21.0938 29.1562C22.9059 29.1562 24.375 27.6872 24.375 25.875C24.375 24.0628 22.9059 22.5938 21.0938 22.5938C19.2816 22.5938 17.8125 24.0628 17.8125 25.875C17.8125 27.6872 19.2816 29.1562 21.0938 29.1562Z" fill="#C2C2C2"/>
<path d="M15.0641 35.4882L14.8152 36.9795C16.641 38.1112 18.7923 38.7656 21.0938 38.7656C23.3952 38.7656 25.5464 38.1112 27.3723 36.9795L27.1235 35.4881C26.7831 33.4489 25.0357 31.9688 22.9688 31.9688H19.2188C17.1518 31.9688 15.4045 33.4489 15.0641 35.4882Z" fill="#C2C2C2"/>
<path d="M38.1562 11.3438C37.3796 11.3438 36.75 10.7141 36.75 9.9375V0.09375H14.7188C12.9095 0.09375 11.4375 1.56572 11.4375 3.375V15.6507C14.0282 13.4064 17.4052 12.0469 21.0938 12.0469C23.8705 12.0469 26.4704 12.8179 28.6915 14.1562H40.9688C41.7454 14.1562 42.375 14.7859 42.375 15.5625C42.375 16.3391 41.7454 16.9688 40.9688 16.9688H32.0892C32.8581 17.826 33.5246 18.7699 34.0752 19.7812H40.9688C41.7454 19.7812 42.375 20.4109 42.375 21.1875C42.375 21.9641 41.7454 22.5938 40.9688 22.5938H35.2443C35.5182 23.5111 35.7017 24.4531 35.7921 25.4062H40.9688C41.7454 25.4062 42.375 26.0359 42.375 26.8125C42.375 27.5891 41.7454 28.2188 40.9688 28.2188H35.7921C35.7017 29.1719 35.5182 30.1139 35.2443 31.0312H40.9688C41.7454 31.0312 42.375 31.6609 42.375 32.4375C42.375 33.2141 41.7454 33.8438 40.9688 33.8438H34.0752C31.572 38.4468 26.6917 41.5781 21.0938 41.5781C19.0837 41.5781 17.1664 41.1738 15.4181 40.4431L11.4375 44.4237V44.625C11.4375 46.4343 12.9095 47.9062 14.7188 47.9062H44.7188C46.528 47.9062 48 46.4343 48 44.625V11.3438H38.1562ZM32.5312 11.3438H18.4688C17.6921 11.3438 17.0625 10.7141 17.0625 9.9375C17.0625 9.16088 17.6921 8.53125 18.4688 8.53125H32.5312C33.3079 8.53125 33.9375 9.16088 33.9375 9.9375C33.9375 10.7141 33.3079 11.3438 32.5312 11.3438ZM40.9688 39.4688H33.4688C32.6921 39.4688 32.0625 38.8391 32.0625 38.0625C32.0625 37.2859 32.6921 36.6562 33.4688 36.6562H40.9688C41.7454 36.6562 42.375 37.2859 42.375 38.0625C42.375 38.8391 41.7454 39.4688 40.9688 39.4688Z" fill="#C2C2C2"/>
<path d="M8.85872 35.0701L0.823781 43.105C-0.274594 44.2034 -0.274594 45.9842 0.823781 47.0825C1.92216 48.1808 3.70294 48.1808 4.80122 47.0825L12.8362 39.0475C11.2696 37.9866 9.91968 36.6367 8.85872 35.0701Z" fill="#C2C2C2"/>
</svg>
