<svg width="20" height="21" viewBox="0 0 20 21" fill="none" xmlns="http://www.w3.org/2000/svg">
<path fill-rule="evenodd" clip-rule="evenodd" d="M12.7441 5.7444C13.0695 5.41897 13.5972 5.41897 13.9226 5.7444L18.0893 9.91107C18.2456 10.0674 18.3334 10.2793 18.3334 10.5003C18.3334 10.7213 18.2456 10.9333 18.0893 11.0896L13.9226 15.2562C13.5972 15.5817 13.0695 15.5817 12.7441 15.2562C12.4187 14.9308 12.4187 14.4032 12.7441 14.0777L15.4882 11.3337L5.83335 11.3337C5.37312 11.3337 5.00002 10.9606 5.00002 10.5003C5.00002 10.0401 5.37312 9.66699 5.83335 9.66699L15.4882 9.66699L12.7441 6.92291C12.4187 6.59748 12.4187 6.06984 12.7441 5.7444Z" fill="#EF6D6D"/>
<path fill-rule="evenodd" clip-rule="evenodd" d="M4.16669 3.83366C3.70645 3.83366 3.33335 4.20675 3.33335 4.66699V16.3337C3.33335 16.7939 3.70645 17.167 4.16669 17.167H8.33335C8.79359 17.167 9.16669 17.5401 9.16669 18.0003C9.16669 18.4606 8.79359 18.8337 8.33335 18.8337H4.16669C2.78597 18.8337 1.66669 17.7144 1.66669 16.3337V4.66699C1.66669 3.28628 2.78598 2.16699 4.16669 2.16699H8.33335C8.79359 2.16699 9.16669 2.54009 9.16669 3.00033C9.16669 3.46056 8.79359 3.83366 8.33335 3.83366H4.16669Z" fill="#EF6D6D"/>
</svg>
