<svg width="11" height="20" viewBox="0 0 11 20" fill="none" xmlns="http://www.w3.org/2000/svg">
<path d="M11 9.99982C10.9981 10.2204 10.9105 10.4317 10.7558 10.589L2.4225 18.9223C2.26533 19.0741 2.05483 19.1581 1.83633 19.1562C1.61783 19.1543 1.40882 19.0667 1.25432 18.9122C1.09981 18.7577 1.01217 18.5487 1.01027 18.3302C1.00837 18.1117 1.09237 17.9012 1.24417 17.744L8.98833 9.99982L1.24417 2.25566C1.16457 2.17879 1.10109 2.08683 1.05741 1.98516C1.01374 1.88349 0.990752 1.77414 0.98979 1.66349C0.988829 1.55284 1.00991 1.44311 1.05181 1.3407C1.09371 1.23828 1.15559 1.14524 1.23384 1.06699C1.31208 0.98875 1.40512 0.926872 1.50754 0.884972C1.60995 0.843071 1.71968 0.821985 1.83033 0.822948C1.94098 0.82391 2.05033 0.846899 2.152 0.890573C2.25367 0.934246 2.34563 0.99773 2.4225 1.07732L10.7558 9.41066C10.9105 9.56796 10.9981 9.7792 11 9.99982Z" fill="#767B91"/>
</svg>
