<svg width="44" height="42" viewBox="0 0 44 42" fill="none" xmlns="http://www.w3.org/2000/svg">
<path d="M21 22.4736C27.0751 22.4736 32 17.5488 32 11.4736C32 5.3985 27.0751 0.473633 21 0.473633C14.9249 0.473633 10 5.3985 10 11.4736C10 17.5488 14.9249 22.4736 21 22.4736Z" fill="#C2C2C2"/>
<path fill-rule="evenodd" clip-rule="evenodd" d="M21.5 27.9816V27.9996C21.5005 29.4582 22.0802 30.8568 23.1115 31.8881C24.1428 32.9195 25.5415 33.4991 27 33.4996H38C39.4585 33.4991 40.8572 32.9195 41.8885 31.8881C42.9198 30.8568 43.4995 29.4582 43.5 27.9996V27.9816C43.488 27.0588 43.1148 26.1774 42.4605 25.5264C41.8062 24.8755 40.9229 24.5069 40 24.4996H25C23.084 24.4996 21.524 26.0756 21.5 27.9816Z" fill="#C2C2C2"/>
<path fill-rule="evenodd" clip-rule="evenodd" d="M21.5 33.0976V37.9996C21.5 39.9316 23.064 41.4996 25 41.4996H40C40.9283 41.4996 41.8185 41.1309 42.4749 40.4745C43.1312 39.8181 43.5 38.9279 43.5 37.9996V33.0976C42.7988 33.8561 41.9481 34.461 41.0015 34.8744C40.0549 35.2878 39.0329 35.5007 38 35.4996H27C25.9671 35.5007 24.9451 35.2878 23.9985 34.8744C23.0519 34.461 22.2012 33.8561 21.5 33.0976ZM21.024 24.1996H21C14.356 24.1996 8.474 25.8616 4.822 28.3516C2.036 30.2516 0.5 32.6656 0.5 35.1996V38.0996C0.5 39.0014 0.858213 39.8662 1.49584 40.5038C2.13346 41.1414 2.99826 41.4996 3.9 41.4996H20.756C19.9426 40.5148 19.4984 39.2769 19.5 37.9996V27.9996C19.5 26.5256 20.08 25.1876 21.024 24.1996ZM36.5 27.4996C36.8978 27.4996 37.2794 27.3416 37.5607 27.0603C37.842 26.779 38 26.3975 38 25.9996V23.9996C38 23.0714 37.6312 22.1811 36.9749 21.5248C36.3185 20.8684 35.4283 20.4996 34.5 20.4996H30.5C29.5717 20.4996 28.6815 20.8684 28.0251 21.5248C27.3687 22.1811 27 23.0714 27 23.9996V25.9996C27 26.8276 27.672 27.4996 28.5 27.4996H36.5ZM35 24.4996H30V23.9996C30 23.867 30.0527 23.7398 30.1464 23.6461C30.2402 23.5523 30.3674 23.4996 30.5 23.4996H34.5C34.6326 23.4996 34.7598 23.5523 34.8536 23.6461C34.9473 23.7398 35 23.867 35 23.9996V24.4996Z" fill="#C2C2C2"/>
</svg>
